<svg xmlns="http://www.w3.org/2000/svg" viewBox="0 0 1072.99 789.49"><defs><style>.cls-1{opacity:0.25;}.cls-2{fill:#00aae7;}.cls-3{fill:#4ac7eb;}.cls-4{fill:#008ccc;}.cls-5{fill:#005ba8;}.cls-6{fill:none;}</style></defs><g id="Layer_2" data-name="Layer 2"><g id="Layer_1-2" data-name="Layer 1"><g class="cls-1"><polygon class="cls-2" points="151.28 293.18 212.71 293.18 212.71 354.61 151.28 293.18"/><polygon class="cls-2" points="647.57 293.18 709 293.18 709 354.61 647.57 293.18"/><polygon class="cls-2" points="718.47 293.18 779.9 293.18 779.9 354.61 718.47 293.18"/><polygon class="cls-2" points="363.98 222.28 425.41 222.28 425.41 283.71 363.98 222.28"/><polygon class="cls-2" points="434.87 151.38 496.31 151.38 496.31 212.81 434.87 151.38"/><polygon class="cls-2" points="576.67 80.48 638.1 80.48 638.1 141.91 576.67 80.48"/><polygon class="cls-2" points="718.47 80.48 779.9 80.48 779.9 141.91 718.47 80.48"/><polygon class="cls-2" points="789.36 151.38 850.79 151.38 850.79 212.81 789.36 151.38"/><polygon class="cls-2" points="789.36 364.07 850.79 364.07 850.79 425.5 789.36 364.07"/><polygon class="cls-2" points="576.67 222.28 638.1 222.28 638.1 283.71 576.67 222.28"/><polygon class="cls-2" points="931.16 222.28 992.59 222.28 992.59 283.71 931.16 222.28"/><polygon class="cls-2" points="151.28 9.59 212.72 71.02 212.72 9.59 151.28 9.59"/><polygon class="cls-2" points="647.57 9.59 709 71.02 709 9.59 647.57 9.59"/><polygon class="cls-2" points="718.47 9.59 779.9 71.02 779.9 9.59 718.47 9.59"/><polygon class="cls-3" points="212.72 283.71 151.28 283.71 151.28 222.28 212.72 283.71"/><polygon class="cls-3" points="709 283.71 647.57 283.71 647.57 222.28 709 283.71"/><polygon class="cls-3" points="921.69 212.81 860.26 212.81 860.26 151.38 921.69 212.81"/><polygon class="cls-3" points="779.9 283.71 718.47 283.71 718.47 222.28 779.9 283.71"/><polygon class="cls-4" points="9.49 151.38 9.49 212.81 70.92 151.38 9.49 151.38"/><polygon class="cls-4" points="222.18 141.91 222.18 80.48 283.61 80.48 222.18 141.91"/><polygon class="cls-4" points="222.18 283.71 222.18 222.28 283.61 222.28 222.18 283.71"/><polygon class="cls-4" points="789.36 354.61 789.36 293.17 850.79 293.17 789.36 354.61"/><polygon class="cls-4" points="860.26 9.59 860.26 71.02 921.69 9.59 860.26 9.59"/><polygon class="cls-4" points="931.16 9.59 931.16 71.02 992.59 9.59 931.16 9.59"/><polygon class="cls-4" points="1002.06 222.28 1002.06 283.71 1063.49 222.28 1002.06 222.28"/><polygon class="cls-4" points="1002.06 364.07 1002.06 425.51 1063.49 364.07 1002.06 364.07"/><polygon class="cls-4" points="860.26 425.5 860.26 364.07 921.69 364.07 860.26 425.5"/><polygon class="cls-4" points="293.08 425.5 293.08 364.07 354.51 364.07 293.08 425.5"/><polygon class="cls-4" points="576.67 425.5 576.67 364.07 638.1 364.07 576.67 425.5"/><polygon class="cls-4" points="718.47 425.5 718.47 364.07 779.9 364.07 718.47 425.5"/><polygon class="cls-4" points="151.28 212.81 151.28 151.38 212.71 151.38 151.28 212.81"/><polygon class="cls-4" points="151.28 141.91 151.28 80.48 212.71 80.48 151.28 141.91"/><polygon class="cls-4" points="80.39 354.61 80.39 293.17 141.82 293.17 80.39 354.61"/><polygon class="cls-3" points="9.49 141.91 70.92 141.91 9.49 80.48 9.49 141.91"/><polygon class="cls-3" points="9.49 9.59 9.49 71.02 70.92 71.02 9.49 9.59"/><polygon class="cls-5" points="9.49 354.61 70.92 354.61 70.92 293.17 9.49 354.61"/><polygon class="cls-5" points="141.82 364.07 141.82 425.5 80.39 425.5 141.82 364.07"/><polygon class="cls-5" points="9.49 283.71 70.92 283.71 70.92 222.28 9.49 283.71"/><polygon class="cls-5" points="141.82 222.28 141.82 283.71 80.39 283.71 141.82 222.28"/><polygon class="cls-5" points="141.82 151.38 141.82 212.81 80.39 212.81 141.82 151.38"/><polygon class="cls-5" points="283.61 151.38 283.61 212.81 222.18 212.81 283.61 151.38"/><polygon class="cls-5" points="354.51 151.38 354.51 212.81 293.08 212.81 354.51 151.38"/><polygon class="cls-5" points="425.41 9.59 363.98 71.02 425.41 71.02 425.41 9.59"/><polygon class="cls-5" points="638.1 9.59 576.67 71.02 638.1 71.02 638.1 9.59"/><polygon class="cls-5" points="425.41 151.38 425.41 212.81 363.98 212.81 425.41 151.38"/><polygon class="cls-5" points="638.1 151.38 638.1 212.81 576.67 212.81 638.1 151.38"/><polygon class="cls-5" points="709 151.38 709 212.81 647.57 212.81 709 151.38"/><polygon class="cls-5" points="921.69 80.48 921.69 141.91 860.26 141.91 921.69 80.48"/><polygon class="cls-5" points="992.59 80.48 992.59 141.91 931.16 141.91 992.59 80.48"/><polygon class="cls-5" points="1002.06 141.91 1063.49 141.91 1063.49 80.48 1002.06 141.91"/><polygon class="cls-5" points="1002.06 212.81 1063.49 212.81 1063.49 151.38 1002.06 212.81"/><polygon class="cls-5" points="779.9 151.38 779.9 212.81 718.47 212.81 779.9 151.38"/><polygon class="cls-5" points="850.79 222.28 850.79 283.71 789.36 283.71 850.79 222.28"/><polygon class="cls-5" points="921.69 222.28 921.69 283.71 860.26 283.71 921.69 222.28"/><polygon class="cls-5" points="992.59 364.07 992.59 425.5 931.16 425.5 992.59 364.07"/><polygon class="cls-5" points="992.59 293.18 992.59 354.61 931.16 354.61 992.59 293.18"/><polygon class="cls-5" points="1002.06 354.61 1063.49 354.61 1063.49 293.17 1002.06 354.61"/><polygon class="cls-5" points="992.59 151.38 992.59 212.81 931.16 212.81 992.59 151.38"/><polygon class="cls-5" points="638.1 293.18 638.1 354.61 576.67 354.61 638.1 293.18"/><polygon class="cls-5" points="425.41 293.18 425.41 354.61 363.98 354.61 425.41 293.18"/><polygon class="cls-5" points="496.31 222.28 496.31 283.71 434.88 283.71 496.31 222.28"/><polygon class="cls-5" points="567.2 293.18 567.2 354.61 505.77 354.61 567.2 293.18"/><polygon class="cls-5" points="567.2 222.28 567.2 283.71 505.77 283.71 567.2 222.28"/><polygon class="cls-5" points="567.2 80.48 567.2 141.91 505.77 141.91 567.2 80.48"/><polygon class="cls-5" points="850.79 9.59 789.36 71.02 850.79 71.02 850.79 9.59"/><polygon class="cls-5" points="496.31 364.07 496.31 425.5 434.88 425.5 496.31 364.07"/><polygon class="cls-5" points="354.51 222.28 354.51 283.71 293.08 283.71 354.51 222.28"/><polygon class="cls-5" points="283.61 293.18 283.61 354.61 222.18 354.61 283.61 293.18"/><polygon class="cls-5" points="141.82 80.48 141.82 141.91 80.39 141.91 141.82 80.48"/><polygon class="cls-5" points="141.82 9.59 80.39 71.02 141.82 71.02 141.82 9.59"/><polygon class="cls-3" points="9.49 425.5 70.92 425.5 9.49 364.07 9.49 425.5"/><polygon class="cls-3" points="212.72 425.5 151.28 425.5 151.28 364.07 212.72 425.5"/><polygon class="cls-3" points="222.18 9.59 222.18 71.02 283.61 71.02 222.18 9.59"/><polygon class="cls-3" points="293.08 9.59 293.08 71.02 354.51 71.02 293.08 9.59"/><polygon class="cls-3" points="434.87 9.59 434.87 71.02 496.31 71.02 434.87 9.59"/><polygon class="cls-3" points="505.77 9.59 505.77 71.02 567.2 71.02 505.77 9.59"/><polygon class="cls-3" points="496.31 141.91 434.88 141.91 434.88 80.48 496.31 141.91"/><polygon class="cls-3" points="709 141.91 647.57 141.91 647.57 80.48 709 141.91"/><polygon class="cls-3" points="850.79 141.91 789.36 141.91 789.36 80.48 850.79 141.91"/><polygon class="cls-3" points="1002.06 9.59 1002.06 71.02 1063.49 71.02 1002.06 9.59"/><polygon class="cls-3" points="567.2 212.81 505.77 212.81 505.77 151.38 567.2 212.81"/><polygon class="cls-3" points="496.31 354.61 434.88 354.61 434.88 293.17 496.31 354.61"/><polygon class="cls-3" points="921.69 354.61 860.26 354.61 860.26 293.17 921.69 354.61"/><polygon class="cls-3" points="425.41 141.91 363.98 141.91 363.98 80.48 425.41 141.91"/><polygon class="cls-3" points="425.41 425.5 363.98 425.5 363.98 364.07 425.41 425.5"/><polygon class="cls-3" points="567.2 425.5 505.77 425.5 505.77 364.07 567.2 425.5"/><polygon class="cls-3" points="709 425.5 647.57 425.5 647.57 364.07 709 425.5"/><polygon class="cls-3" points="354.51 141.91 293.08 141.91 293.08 80.48 354.51 141.91"/><polygon class="cls-3" points="354.51 354.61 293.08 354.61 293.08 293.17 354.51 354.61"/><polygon class="cls-3" points="283.61 425.5 222.18 425.5 222.18 364.07 283.61 425.5"/><polygon class="cls-2" points="151.28 718.56 212.72 779.99 212.72 718.56 151.28 718.56"/><polygon class="cls-2" points="647.57 718.56 709 779.99 709 718.56 647.57 718.56"/><polygon class="cls-2" points="718.47 718.56 779.9 779.99 779.9 718.56 718.47 718.56"/><polygon class="cls-2" points="363.98 647.66 425.41 647.66 425.41 709.1 363.98 647.66"/><polygon class="cls-2" points="434.87 576.77 496.31 576.77 496.31 638.2 434.87 576.77"/><polygon class="cls-2" points="576.67 505.87 638.1 505.87 638.1 567.3 576.67 505.87"/><polygon class="cls-2" points="718.47 505.87 779.9 505.87 779.9 567.3 718.47 505.87"/><polygon class="cls-2" points="789.36 576.77 850.79 576.77 850.79 638.2 789.36 576.77"/><polygon class="cls-2" points="576.67 647.66 638.1 647.66 638.1 709.1 576.67 647.66"/><polygon class="cls-2" points="931.16 647.66 992.59 647.66 992.59 709.1 931.16 647.66"/><polygon class="cls-2" points="151.28 434.97 212.71 434.97 212.71 496.4 151.28 434.97"/><polygon class="cls-2" points="647.57 434.97 709 434.97 709 496.4 647.57 434.97"/><polygon class="cls-2" points="718.47 434.97 779.9 434.97 779.9 496.4 718.47 434.97"/><polygon class="cls-3" points="212.72 709.1 151.28 709.1 151.28 647.66 212.72 709.1"/><polygon class="cls-3" points="709 709.1 647.57 709.1 647.57 647.66 709 709.1"/><polygon class="cls-3" points="921.69 638.2 860.26 638.2 860.26 576.76 921.69 638.2"/><polygon class="cls-3" points="779.9 709.1 718.47 709.1 718.47 647.66 779.9 709.1"/><polygon class="cls-4" points="9.49 576.76 9.49 638.2 70.92 576.76 9.49 576.76"/><polygon class="cls-4" points="222.18 567.3 222.18 505.87 283.61 505.87 222.18 567.3"/><polygon class="cls-4" points="222.18 709.1 222.18 647.66 283.61 647.66 222.18 709.1"/><polygon class="cls-4" points="789.36 718.56 789.36 779.99 850.79 718.56 789.36 718.56"/><polygon class="cls-4" points="860.26 496.4 860.26 434.97 921.69 434.97 860.26 496.4"/><polygon class="cls-4" points="931.16 496.4 931.16 434.97 992.59 434.97 931.16 496.4"/><polygon class="cls-4" points="1002.06 647.66 1002.06 709.1 1063.49 647.66 1002.06 647.66"/><polygon class="cls-4" points="151.28 638.2 151.28 576.76 212.71 576.76 151.28 638.2"/><polygon class="cls-4" points="151.28 567.3 151.28 505.87 212.71 505.87 151.28 567.3"/><polygon class="cls-4" points="80.39 718.56 80.39 779.99 141.82 718.56 80.39 718.56"/><polygon class="cls-3" points="9.49 567.3 70.92 567.3 9.49 505.87 9.49 567.3"/><polygon class="cls-3" points="9.49 496.4 70.92 496.4 9.49 434.97 9.49 496.4"/><polygon class="cls-5" points="9.49 779.99 70.92 779.99 70.92 718.56 9.49 779.99"/><polygon class="cls-5" points="9.49 709.1 70.92 709.1 70.92 647.66 9.49 709.1"/><polygon class="cls-5" points="141.82 647.66 141.82 709.1 80.39 709.1 141.82 647.66"/><polygon class="cls-5" points="141.82 576.77 141.82 638.2 80.39 638.2 141.82 576.77"/><polygon class="cls-5" points="283.61 576.77 283.61 638.2 222.18 638.2 283.61 576.77"/><polygon class="cls-5" points="354.51 576.77 354.51 638.2 293.08 638.2 354.51 576.77"/><polygon class="cls-5" points="425.41 434.97 425.41 496.4 363.98 496.4 425.41 434.97"/><polygon class="cls-5" points="638.1 434.97 638.1 496.4 576.67 496.4 638.1 434.97"/><polygon class="cls-5" points="425.41 576.77 425.41 638.2 363.98 638.2 425.41 576.77"/><polygon class="cls-5" points="638.1 576.77 638.1 638.2 576.67 638.2 638.1 576.77"/><polygon class="cls-5" points="709 576.77 709 638.2 647.57 638.2 709 576.77"/><polygon class="cls-5" points="921.69 505.87 921.69 567.3 860.26 567.3 921.69 505.87"/><polygon class="cls-5" points="992.59 505.87 992.59 567.3 931.16 567.3 992.59 505.87"/><polygon class="cls-5" points="1002.06 567.3 1063.49 567.3 1063.49 505.87 1002.06 567.3"/><polygon class="cls-5" points="1002.06 638.2 1063.49 638.2 1063.49 576.76 1002.06 638.2"/><polygon class="cls-5" points="779.9 576.77 779.9 638.2 718.47 638.2 779.9 576.77"/><polygon class="cls-5" points="850.79 647.66 850.79 709.1 789.36 709.1 850.79 647.66"/><polygon class="cls-5" points="921.69 647.66 921.69 709.1 860.26 709.1 921.69 647.66"/><polygon class="cls-5" points="931.16 779.99 992.59 779.99 992.59 718.56 931.16 779.99"/><polygon class="cls-5" points="1002.06 779.99 1063.49 779.99 1063.49 718.56 1002.06 779.99"/><polygon class="cls-5" points="992.59 576.77 992.59 638.2 931.16 638.2 992.59 576.77"/><polygon class="cls-5" points="576.67 779.99 638.1 779.99 638.1 718.56 576.67 779.99"/><polygon class="cls-5" points="363.98 779.99 425.41 779.99 425.41 718.56 363.98 779.99"/><polygon class="cls-5" points="496.31 647.66 496.31 709.1 434.88 709.1 496.31 647.66"/><polygon class="cls-5" points="505.77 779.99 567.2 779.99 567.2 718.56 505.77 779.99"/><polygon class="cls-5" points="567.2 647.66 567.2 709.1 505.77 709.1 567.2 647.66"/><polygon class="cls-5" points="567.2 505.87 567.2 567.3 505.77 567.3 567.2 505.87"/><polygon class="cls-5" points="850.79 434.97 850.79 496.4 789.36 496.4 850.79 434.97"/><polygon class="cls-5" points="354.51 647.66 354.51 709.1 293.08 709.1 354.51 647.66"/><polygon class="cls-5" points="222.18 779.99 283.61 779.99 283.61 718.56 222.18 779.99"/><polygon class="cls-5" points="141.82 505.87 141.82 567.3 80.39 567.3 141.82 505.87"/><polygon class="cls-5" points="141.82 434.97 141.82 496.4 80.39 496.4 141.82 434.97"/><polygon class="cls-3" points="283.61 496.4 222.18 496.4 222.18 434.97 283.61 496.4"/><polygon class="cls-3" points="354.51 496.4 293.08 496.4 293.08 434.97 354.51 496.4"/><polygon class="cls-3" points="496.31 496.4 434.88 496.4 434.88 434.97 496.31 496.4"/><polygon class="cls-3" points="567.2 496.4 505.77 496.4 505.77 434.97 567.2 496.4"/><polygon class="cls-3" points="496.31 567.3 434.88 567.3 434.88 505.87 496.31 567.3"/><polygon class="cls-3" points="709 567.3 647.57 567.3 647.57 505.87 709 567.3"/><polygon class="cls-3" points="850.79 567.3 789.36 567.3 789.36 505.87 850.79 567.3"/><polygon class="cls-3" points="1002.06 496.4 1063.49 496.4 1002.06 434.97 1002.06 496.4"/><polygon class="cls-3" points="567.2 638.2 505.77 638.2 505.77 576.76 567.2 638.2"/><polygon class="cls-3" points="434.87 779.99 496.31 779.99 434.87 718.56 434.87 779.99"/><polygon class="cls-3" points="860.26 779.99 921.69 779.99 860.26 718.56 860.26 779.99"/><polygon class="cls-3" points="425.41 567.3 363.98 567.3 363.98 505.87 425.41 567.3"/><polygon class="cls-3" points="354.51 567.3 293.08 567.3 293.08 505.87 354.51 567.3"/><polygon class="cls-3" points="293.08 779.99 354.51 779.99 293.08 718.56 293.08 779.99"/></g><rect class="cls-6" y="780.01" width="9.48" height="9.48"/><rect class="cls-6" y="0.16" width="9.48" height="9.48"/><rect class="cls-6" x="1063.52" width="9.48" height="9.48"/><rect class="cls-6" x="1063.52" y="780" width="9.48" height="9.48"/></g></g></svg>