<?xml version="1.0" encoding="utf-8"?>
<!-- Generator: Adobe Illustrator 26.0.3, SVG Export Plug-In . SVG Version: 6.00 Build 0)  -->
<svg version="1.1" id="Layer_1" xmlns="http://www.w3.org/2000/svg" xmlns:xlink="http://www.w3.org/1999/xlink" x="0px" y="0px"
	 viewBox="0 0 512 110" style="enable-background:new 0 0 512 110;" xml:space="preserve">
<style type="text/css">
	.st0{fill:#FFFFFF;}
</style>
<g>
	<g>
		<g>
			<path class="st0" d="M237.9,81.5c1.1,0,1.8-0.3,2.3-0.9c0.3-0.4,0.4-0.8,0.4-1.4c0-0.9-0.4-1.5-1.2-1.8c-0.4-0.2-1-0.3-1.7-0.3
				h-3.4v4.3L237.9,81.5L237.9,81.5z M237.2,75.9c0.7,0,1.3-0.1,1.7-0.3c0.6-0.3,1-0.9,1-1.7c0-0.8-0.3-1.3-1-1.6
				c-0.4-0.2-0.9-0.2-1.7-0.2h-3.1v3.8L237.2,75.9L237.2,75.9z M232.4,70.7h5.4c1.5,0,2.5,0.4,3.2,1.3c0.4,0.5,0.6,1.1,0.6,1.7
				c0,0.8-0.2,1.4-0.7,1.9c-0.2,0.3-0.6,0.5-1,0.7c0.6,0.2,1.1,0.5,1.4,0.8c0.6,0.5,0.8,1.3,0.8,2.2c0,0.8-0.3,1.5-0.8,2.1
				c-0.8,1-2,1.4-3.6,1.4h-5.4V70.7H232.4z"/>
		</g>
	</g>
	<polygon class="st0" points="243.2,70.7 245.2,70.7 248.9,76.6 252.6,70.7 254.6,70.7 249.8,78 249.8,82.9 248.1,82.9 248.1,78 	
		"/>
	<polygon class="st0" points="261.3,70.7 263.8,80.6 266.5,70.7 268.4,70.7 271.2,80.7 273.6,70.7 275.5,70.7 272.2,82.9 
		270.4,82.9 267.5,72.8 264.5,82.9 262.8,82.9 259.5,70.7 	"/>
	<path class="st0" d="M282.9,77.9l-1.9-5.4l-2,5.4H282.9z M280.1,70.7h1.9l4.6,12.2h-1.9l-1.3-3.7h-5l-1.4,3.7h-1.8L280.1,70.7z"/>
	<g>
		<g>
			<path class="st0" d="M292.9,81.5c0.6,0,1-0.1,1.4-0.2c0.6-0.2,1.2-0.6,1.6-1.3c0.3-0.5,0.6-1.1,0.7-1.9c0.1-0.5,0.1-0.9,0.1-1.3
				c0-1.5-0.3-2.7-0.9-3.5S294.2,72,293,72h-3v9.4L292.9,81.5L292.9,81.5z M288.2,70.7h5c1.7,0,3,0.6,4,1.8c0.8,1.1,1.3,2.5,1.3,4.1
				c0,1.3-0.2,2.5-0.7,3.5c-0.9,1.9-2.4,2.8-4.5,2.8h-5L288.2,70.7L288.2,70.7z"/>
		</g>
	</g>
	<rect x="301.2" y="70.7" class="st0" width="1.7" height="12.2"/>
	<g>
		<g>
			<path class="st0" d="M315.4,81.5c0.6,0,1-0.1,1.4-0.2c0.7-0.2,1.2-0.6,1.6-1.3c0.3-0.5,0.6-1.1,0.7-1.9c0.1-0.5,0.1-0.9,0.1-1.3
				c0-1.5-0.3-2.7-0.9-3.5s-1.6-1.3-2.9-1.3h-3v9.4L315.4,81.5L315.4,81.5z M310.8,70.7h5c1.7,0,3,0.6,4,1.8
				c0.8,1.1,1.3,2.5,1.3,4.1c0,1.3-0.2,2.5-0.7,3.5c-0.9,1.9-2.4,2.8-4.5,2.8h-5L310.8,70.7L310.8,70.7z"/>
		</g>
	</g>
	<polygon class="st0" points="323.4,70.7 332.6,70.7 332.6,72.2 325.1,72.2 325.1,75.9 332,75.9 332,77.3 325.1,77.3 325.1,81.5 
		332.8,81.5 332.8,82.9 323.4,82.9 	"/>
	<g>
		<g>
			<path class="st0" d="M343.4,71c1.2,0.6,2,1.8,2.3,3.4H344c-0.2-0.9-0.6-1.5-1.2-2c-0.7-0.4-1.4-0.6-2.4-0.6
				c-1.2,0-2.1,0.4-2.9,1.3c-0.8,0.8-1.2,2.1-1.2,3.8c0,1.5,0.3,2.6,1,3.6c0.7,0.9,1.7,1.4,3.2,1.4c1.1,0,2-0.3,2.8-1
				c0.7-0.6,1.1-1.7,1.1-3.1h-4v-1.4h5.6v6.5h-1.1l-0.4-1.6c-0.6,0.6-1.1,1-1.5,1.3c-0.7,0.4-1.7,0.6-2.8,0.6
				c-1.5,0-2.7-0.5-3.8-1.4c-1.2-1.2-1.7-2.8-1.7-4.8s0.6-3.7,1.7-4.9c1.1-1.2,2.5-1.7,4.2-1.7C341.5,70.4,342.5,70.6,343.4,71"/>
		</g>
	</g>
	<polygon class="st0" points="348.6,70.7 350.3,70.7 350.3,81.5 356.8,81.5 356.8,82.9 348.6,82.9 	"/>
	<path class="st0" d="M364.9,77.9l-1.9-5.4l-2,5.4H364.9z M362.1,70.7h1.9l4.6,12.2h-1.9l-1.3-3.7h-5l-1.3,3.7h-1.7L362.1,70.7z"/>
	<g>
		<g>
			<path class="st0" d="M382.9,71.6c0.9,0.8,1.4,1.7,1.5,2.8h-1.7c-0.2-0.8-0.5-1.4-1.1-1.9s-1.3-0.7-2.3-0.7
				c-1.2,0-2.2,0.4-2.9,1.3c-0.8,0.8-1.1,2.1-1.1,3.9c0,1.4,0.3,2.6,1,3.5s1.7,1.3,3,1.3c1.2,0,2.2-0.5,2.8-1.4
				c0.3-0.5,0.6-1.1,0.7-1.9h1.7c-0.2,1.3-0.7,2.4-1.5,3.2c-1,1-2.3,1.6-4,1.6c-1.5,0-2.7-0.4-3.7-1.3c-1.3-1.1-1.9-2.9-1.9-5.3
				c0-1.8,0.5-3.3,1.5-4.4c1-1.3,2.5-1.9,4.3-1.9C380.8,70.4,382.1,70.8,382.9,71.6"/>
		</g>
	</g>
	<polygon class="st0" points="386.8,70.7 388.4,70.7 388.4,81.5 394.8,81.5 394.8,82.9 386.8,82.9 	"/>
	<g>
		<g>
			<path class="st0" d="M398.3,70.7v7.6c0,0.9,0.2,1.6,0.5,2.2c0.5,0.9,1.4,1.3,2.6,1.3c1.5,0,2.4-0.5,3-1.4
				c0.3-0.5,0.4-1.2,0.4-2.1v-7.6h1.7v6.9c0,1.5-0.2,2.7-0.6,3.5c-0.8,1.5-2.2,2.2-4.4,2.2c-2.1,0-3.6-0.7-4.3-2.2
				c-0.4-0.8-0.6-2-0.6-3.5v-6.9H398.3z"/>
		</g>
		<g>
			<path class="st0" d="M414.5,81.5c1.1,0,1.8-0.3,2.3-0.9c0.3-0.4,0.4-0.8,0.4-1.4c0-0.9-0.4-1.5-1.2-1.8c-0.4-0.2-1-0.3-1.7-0.3
				h-3.4v4.3L414.5,81.5L414.5,81.5z M413.9,75.9c0.7,0,1.3-0.1,1.7-0.3c0.7-0.3,1-0.9,1-1.7c0-0.8-0.3-1.3-1-1.6
				c-0.4-0.2-0.9-0.2-1.7-0.2h-3.1v3.8L413.9,75.9L413.9,75.9z M409.1,70.7h5.4c1.5,0,2.6,0.4,3.2,1.3c0.4,0.5,0.6,1.1,0.6,1.7
				c0,0.8-0.2,1.4-0.7,1.9c-0.2,0.3-0.6,0.5-1,0.7c0.7,0.2,1.2,0.5,1.5,0.8c0.6,0.5,0.8,1.3,0.8,2.2c0,0.8-0.2,1.5-0.8,2.1
				c-0.8,1-2,1.4-3.6,1.4h-5.4V70.7z"/>
		</g>
		<g>
			<path class="st0" d="M422,79c0,0.7,0.2,1.3,0.5,1.7c0.5,0.8,1.5,1.2,2.9,1.2c0.6,0,1.2-0.1,1.7-0.3c1-0.3,1.5-1,1.5-1.8
				c0-0.7-0.2-1.1-0.6-1.4s-1.1-0.5-2-0.7l-1.7-0.4c-1.1-0.2-1.8-0.5-2.3-0.8c-0.8-0.5-1.2-1.3-1.2-2.3c0-1.1,0.4-2,1.2-2.7
				c0.7-0.7,1.8-1.1,3.2-1.1c1.3,0,2.4,0.3,3.3,0.9s1.3,1.6,1.3,3h-1.6c-0.1-0.7-0.2-1.2-0.5-1.5c-0.5-0.6-1.4-1-2.6-1
				c-1,0-1.7,0.2-2.1,0.6s-0.7,0.9-0.7,1.4c0,0.6,0.2,1,0.7,1.3c0.3,0.2,1.1,0.4,2.2,0.7l1.7,0.4c0.8,0.2,1.5,0.5,1.9,0.8
				c0.8,0.6,1.2,1.4,1.2,2.5c0,1.4-0.5,2.3-1.5,2.9s-2.1,0.9-3.4,0.9c-1.5,0-2.7-0.4-3.6-1.2c-0.9-0.8-1.3-1.8-1.3-3.1H422z"/>
		</g>
		<g>
			<path class="st0" d="M196.4,26.1c1.1,3.7,2.3,7.4,3.5,11.1c0.9,2.9,1.9,5.7,2.7,8.5c0.9,3,1.6,6,2.4,9c0.8-3.5,1.6-6.9,2.6-10.4
				c0.8-2.6,1.7-5.2,2.6-7.8c1.1-3.5,2.2-7,3.3-10.5h5c-0.8,2-1.5,4-2.3,6.1c-1.3,3.9-2.5,7.9-3.7,11.8c-1.6,5-3.2,10-4.9,15H202
				c-1.2-3.9-2.4-7.8-3.6-11.7c-1-2.9-2.1-5.8-2.9-8.8c-0.8-2.8-1.3-5.7-1.9-8.5c-0.4,3.2-0.6,4.5-2.3,9.8c-0.6,1.9-1.2,3.8-1.8,5.7
				c-1.4,4.5-2.9,9-4.4,13.5h-5.7l-10-32.8h4.8c1.2,4.1,2.4,8.2,3.7,12.3c1,3,1.9,5.9,2.7,8.9c0.7,2.4,1.2,4.9,1.8,7.3
				c0.6-2.6,1.2-5.2,2-7.7c0.9-2.9,1.8-5.8,2.8-8.6c1.4-4.1,2.7-8.1,4-12.2L196.4,26.1z"/>
		</g>
	</g>
	<polygon class="st0" points="233.2,29.7 222.1,58.8 216.9,58.8 230.8,26.2 235.9,26.2 249.7,58.9 244.7,58.9 	"/>
	<polygon class="st0" points="272.8,26.1 272.8,29.7 261.8,29.7 261.8,58.9 257.1,58.9 257.1,29.7 246.4,29.7 246.4,26.1 	"/>
	<polygon class="st0" points="297.9,26 297.9,30 281.8,30 281.8,40 296,40 296,43.9 281.8,43.9 281.8,55.1 297.8,55.1 297.8,58.9 
		277,58.9 277,26 	"/>
	<g>
		<g>
			<path class="st0" d="M310.9,30v10.4h7.4c2.5-0.2,4.2-0.4,5.6-2.4c0.6-0.9,0.9-2,0.9-3.1c0-1.5-0.6-3-1.8-3.8
				c-0.3-0.2-1.1-0.7-2.2-0.9c-0.7-0.1-1.5-0.1-1.7-0.1L310.9,30L310.9,30z M325.6,58.9c-0.4-1.7-0.8-3.5-1.1-5.2
				c-0.2-1.4-0.4-2.8-0.6-4.2c-0.2-1.9-0.5-3.3-2.1-4.5c-1.2-0.9-2.4-1-3.9-1.2h-7v15h-4.7V26h9.3c3.1,0,5.1,0,6.4,0.2
				c3,0.3,5.4,1.4,6.9,3.9c0.4,0.7,1.2,2.2,1.2,4.4c0,2.6-1.2,5.3-3.5,6.6c-0.9,0.5-1.8,0.7-2.8,1.1c1.7,0.5,2.8,0.9,3.8,2.3
				c1.5,2.3,1.3,5.5,1.7,8.2c0.4,2.2,1.1,4,1.9,6.1L325.6,58.9L325.6,58.9z"/>
		</g>
	</g>
	<polygon class="st0" points="359.6,26 359.6,30 344.8,30 344.8,39.9 358.3,39.9 358.3,43.7 344.8,43.7 344.8,58.9 340.1,58.9 
		340.1,26 	"/>
	<g>
		<g>
			<path class="st0" d="M371.1,30v10.4h7.4c2.5-0.2,4.2-0.4,5.6-2.4c0.6-0.9,0.9-2,0.9-3.1c0-1.5-0.6-3-1.8-3.8
				c-0.3-0.2-1.1-0.7-2.2-0.9c-0.7-0.1-1.5-0.1-1.7-0.1L371.1,30L371.1,30z M385.8,58.9c-0.4-1.7-0.7-3.5-1.1-5.2
				c-0.2-1.4-0.4-2.8-0.6-4.2c-0.2-1.9-0.5-3.3-2.1-4.5c-1.2-0.9-2.4-1-3.9-1.2h-7v15h-4.7V26h9.3c3.1,0,5.2,0,6.4,0.2
				c3,0.3,5.4,1.4,6.9,3.9c0.4,0.7,1.2,2.2,1.2,4.4c0,2.6-1.2,5.3-3.6,6.6c-0.9,0.5-1.8,0.7-2.8,1.1c1.7,0.5,2.8,0.9,3.8,2.3
				c1.5,2.3,1.3,5.5,1.7,8.2c0.4,2.2,1.1,4,1.9,6.1L385.8,58.9L385.8,58.9z"/>
		</g>
		<g>
			<path class="st0" d="M403.9,49.6c1.6,3.8,4.6,6.1,8.7,6.1c3.2,0,6.2-1.4,7.8-4c1.6-2.4,2.3-7.2,2.3-10c0-1.3-0.1-5.1-2.2-8.4
				c-2.6-3.8-5.9-4.1-7.7-4.1c-0.8,0-3.1,0.1-5.2,1.4c-0.9,0.6-1.7,1.3-2.4,2.2c-1.1,1.4-2.2,3.8-2.4,8
				C402.8,41.5,402.6,46.3,403.9,49.6 M398.9,35.1c2.2-6,7.3-9.8,14-9.8c1.6,0,5.8,0.3,9.4,3.1c0.6,0.5,1.6,1.4,2.7,3.1
				c1,1.6,2.9,5.4,2.9,10.4c0,5.6-2.2,9.9-3.2,11.5c-0.6,0.9-1.4,1.8-2.2,2.6c-2.8,2.5-6.3,3.5-10.1,3.5c-5.3,0-8.3-2.4-9.7-3.8
				c-2.1-2.1-5-6.4-4.9-13.6C397.8,38.7,398.4,36.3,398.9,35.1"/>
		</g>
		<g>
			<path class="st0" d="M462,58.9h-6.1l-13.2-22.5c-1.2-2.1-1.7-2.9-3.4-6.7c0.6,3.1,0.6,3.9,0.7,7.1v22.1h-4.6V26.1h6.3
				c1.8,2.9,3.6,5.8,5.3,8.7c2.2,3.7,4.4,7.5,6.6,11.3c2.2,3.6,2.7,4.7,4.4,8.5c-0.2-1.2-0.3-2.4-0.4-3.6c-0.1-1.3-0.1-2.5-0.1-3.8
				V26.3h4.5L462,58.9L462,58.9z"/>
		</g>
	</g>
	<polygon class="st0" points="466.8,26.1 466.8,29.7 477.5,29.7 477.5,58.9 482.1,58.9 482.1,29.7 493,29.7 493,26.1 	"/>
	<polygon class="st0" points="19,58.1 58.5,97.6 58.5,58.1 	"/>
	<polygon class="st0" points="64.6,58.1 104.1,97.6 104.1,58.1 	"/>
	<polygon class="st0" points="64.6,58.1 64.6,97.6 104.1,58.1 	"/>
	<polygon class="st0" points="110.2,58.1 110.2,97.6 149.7,58.1 	"/>
	<polygon class="st0" points="149.7,12.4 110.2,52 149.7,52 	"/>
	<polygon class="st0" points="64.6,12.4 64.6,52 104.1,52 	"/>
	<polygon class="st0" points="19,12.4 19,52 58.5,52 	"/>
	<polygon class="st0" points="104.1,12.4 64.6,52 104.1,52 	"/>
</g>
</svg>
